<svg xmlns="http://www.w3.org/2000/svg" viewBox="0 0 1200 400" width="1200" height="400" role="img" aria-label="Scrapfly · the web data layer for scrapers and AI agents">
  <style>
    .mono { font-family: 'IBM Plex Mono','SF Mono',Consolas,'Liberation Mono',monospace; }
    .wm   { font-size: 76px; font-weight: 600; letter-spacing: -1.2px; fill: #4ea8f1; }
    .tag  { font-size: 18px; fill: rgba(255,255,255,0.55); }
    .bar  { font-size: 14px; font-weight: 600; letter-spacing: 0.4px; }
    .api  { font-size: 13px; letter-spacing: 1.2px; }
  </style>
  <rect width="1200" height="400" fill="#091e42"/>

  <g transform="translate(0,52)">
    <text x="48" class="mono bar"><tspan fill="rgba(255,255,255,0.35)">▸ </tspan><tspan fill="#4ea8f1">scrapfly</tspan><tspan fill="rgba(255,255,255,0.35)">@org</tspan></text>
    <line x1="200" y1="-4" x2="1080" y2="-4" stroke="rgba(255,255,255,0.18)"/>
    <text x="1152" class="mono bar" fill="#fd7e14" text-anchor="end">2026</text>
  </g>

  <g transform="translate(537,69) scale(12)" fill="#4ea8f1">
    <path d="M 8.577413,6.8670004 7.2008973,5.565932 6.0441638,5.5638818 V 4.9967915 L 7.2004873,4.9943315 8.577413,3.6936729 c 0.08611,0.036493 0.178779,0.055356 0.271447,0.055356 0.168939,0 0.337877,-0.060685 0.466631,-0.1824695 a 0.5998938,0.5998938 0 0 0 0,-0.8815937 0.6876431,0.6876431 0 0 0 -0.932849,0 A 0.59907373,0.59907373 0 0 0 8.244458,3.373839 L 7.0040761,4.5461541 6.0441638,4.5477986 V 4.0393396 H 6.5722999 L 7.6195518,3.045804 V 1.2063483 C 7.8684473,1.1169591 8.045996,0.88979459 8.045996,0.62367629 c 0,-0.34361656 -0.2956407,-0.62326626 -0.6597597,-0.62326626 -0.3637084,0 -0.65976,0.2796497 -0.65976,0.62326626 0,0.2628381 0.1738586,0.48795191 0.4182447,0.57939171 V 2.8608742 L 6.3754791,3.5907518 H 6.0318624 L 4.7496561,2.2130053 3.4674499,3.5907518 H 3.1324442 L 2.3627924,2.8608742 V 1.2026579 C 2.6071779,1.1112179 2.7810365,0.88610419 2.7810365,0.62326629 2.7810365,0.27964971 2.4853953,0 2.1212761,0 1.7575676,0 1.4615167,0.27964971 1.4615167,0.62326629 c 0,0.2665283 0.1779589,0.49328251 0.4264446,0.58226201 V 3.0453939 L 2.935623,4.0385195 h 0.5199359 v 0.508454 L 2.5042577,4.545747 1.2638751,3.3738424 A 0.5904628,0.5904628 0 0 0 1.318824,3.1249459 c 0,-0.1664776 -0.068886,-0.3231143 -0.1927201,-0.4407969 a 0.6876431,0.6876431 0 0 0 -0.93325907,0 0.5998938,0.5998938 0 0 0 0,0.8815937 c 0.1283431,0.121373 0.2976917,0.1824696 0.4666296,0.1824696 0.09267,0 0.1853398,-0.018863 0.2714482,-0.055356 l 1.37651657,1.3006585 1.1481224,0.00246 v 0.5670915 l -1.1481224,0.00204 -1.37651657,1.3010682 a 0.68928336,0.68928336 0 0 0 -0.7380778,0.1267029 0.5998938,0.5998938 0 0 0 0,0.881594 c 0.1283431,0.1213736 0.2976917,0.1824697 0.4666296,0.1824697 0.1689378,0 0.3378757,-0.060685 0.46662947,-0.1824697 0.1246536,-0.118089 0.1931307,-0.2747264 0.1931307,-0.4412049 0,-0.086929 -0.018861,-0.1709878 -0.054949,-0.2488955 l 1.239972,-1.1714919 0.9513012,-0.00164 V 6.5176426 H 2.9360336 L 1.8887817,7.5107711 v 1.8398672 c -0.2488964,0.088974 -0.4264455,0.3165524 -0.4264455,0.5822614 0,0.3440253 0.295642,0.6232663 0.6597603,0.6232663 0.3637086,0 0.6597604,-0.279241 0.6597604,-0.6232663 0,-0.262428 -0.1738586,-0.4879525 -0.418245,-0.5793922 V 7.6961071 L 3.1328539,6.9662304 H 3.47196 L 4.7504762,8.3398757 6.0294023,6.9662304 H 6.3762991 L 7.145951,7.6961071 v 1.6573967 c -0.244386,0.09144 -0.4182447,0.3165529 -0.4182447,0.5793919 0,0.3440253 0.2956417,0.6232663 0.6597607,0.6232663 0.3637088,0 0.659761,-0.279241 0.659761,-0.6232663 0,-0.266529 -0.1779593,-0.4932825 -0.4264461,-0.5822611 V 7.5115883 L 6.57312,6.5184634 H 6.0449837 V 6.0124695 l 0.9599131,0.00164 1.2403802,1.1723141 a 0.59784359,0.59784359 0 0 0 0.138186,0.6888729 c 0.128343,0.1213738 0.297691,0.182469 0.466628,0.182469 0.168939,0 0.337876,-0.060685 0.46663,-0.182469 a 0.5998938,0.5998938 0 0 0 0,-0.8815934 0.69215371,0.69215371 0 0 0 -0.739308,-0.1267057 z m 0.140235,-3.864661 a 0.19354059,0.19354059 0 0 1 0.262017,0 0.16852793,0.16852793 0 0 1 0,0.2476663 0.19354059,0.19354059 0 0 1 -0.262428,0 0.16852793,0.16852793 0 0 1 0,-0.2476663 z M 7.3862363,0.44858772 c 0.1021013,0 0.1853406,0.0787283 0.1853406,0.17508857 0,0.09636 -0.083241,0.1750886 -0.1853406,0.1750886 -0.1016904,0 -0.184929,-0.078728 -0.184929,-0.1750886 0,-0.09677 0.083238,-0.17508857 0.184929,-0.17508857 z m -5.2661903,0 c 0.1021015,0 0.1853399,0.0787283 0.1853399,0.17508857 0,0.09636 -0.083241,0.1750886 -0.1853399,0.1750886 -0.1021007,0 -0.185339,-0.078728 -0.185339,-0.1750886 0,-0.09677 0.083241,-0.17508857 0.185339,-0.17508857 z M 0.78904493,3.2500057 a 0.19354059,0.19354059 0 0 1 -0.2624282,0 0.16852793,0.16852793 0 0 1 0,-0.2476663 0.18985018,0.18985018 0 0 1 0.1312141,-0.050846 c 0.047154,0 0.094721,0.017221 0.1308043,0.050846 a 0.16934802,0.16934802 0 0 1 0,0.2476663 z m 0,4.3083272 a 0.19354059,0.19354059 0 0 1 -0.2624282,0 0.16852793,0.16852793 0 0 1 0,-0.2476661 0.18985018,0.18985018 0 0 1 0.1312141,-0.05085 c 0.047154,0 0.094721,0.017218 0.1308043,0.05085 a 0.16934802,0.16934802 0 0 1 0,0.2476661 z M 2.120046,10.109625 c -0.1021007,0 -0.185339,-0.07873 -0.185339,-0.1750903 0,-0.09636 0.083241,-0.174677 0.185339,-0.174677 0.1021015,0 0.1853399,0.07832 0.1853399,0.174677 A 0.1804192,0.1804192 0 0 1 2.120046,10.109625 Z m 5.2661903,0 c -0.1016904,0 -0.184929,-0.07873 -0.184929,-0.1750903 0,-0.09636 0.083238,-0.174677 0.184929,-0.174677 0.1021013,0 0.1853406,0.07832 0.1853406,0.174677 A 0.1804192,0.1804192 0 0 1 7.3862363,10.109625 Z M 3.9291589,6.780481 V 3.7732213 L 4.7492461,2.8916275 5.5693332,3.7732213 V 6.780481 L 4.7492461,7.6620734 Z M 8.979665,7.5583329 a 0.19313054,0.19313054 0 0 1 -0.262428,0 0.16852793,0.16852793 0 0 1 0,-0.2476661 0.19354059,0.19354059 0 0 1 0.262428,0 0.16852793,0.16852793 0 0 1 0,0.2476661 z"/>
  </g>

  <text x="600" y="262" text-anchor="middle" class="mono wm">scrapfly</text>
  <text x="600" y="300" text-anchor="middle" class="mono tag">The web data layer for scrapers and AI agents</text>

  <text x="600" y="365" text-anchor="middle" class="mono api">
    <tspan fill="rgba(255,255,255,0.85)">web-scraping</tspan>
    <tspan dx="14" fill="rgba(255,255,255,0.25)">·</tspan>
    <tspan dx="14" fill="rgba(255,255,255,0.85)">cloud-browser</tspan>
    <tspan dx="14" fill="rgba(255,255,255,0.25)">·</tspan>
    <tspan dx="14" fill="rgba(255,255,255,0.85)">screenshot</tspan>
    <tspan dx="14" fill="rgba(255,255,255,0.25)">·</tspan>
    <tspan dx="14" fill="rgba(255,255,255,0.85)">extraction</tspan>
    <tspan dx="14" fill="rgba(255,255,255,0.25)">·</tspan>
    <tspan dx="14" fill="rgba(255,255,255,0.85)">crawler</tspan>
  </text>
</svg>
